<svg width="40" height="40" viewBox="0 0 40 40" fill="none" xmlns="http://www.w3.org/2000/svg">
<g id="akar-icons:arrow-back-thick-fill">
<g id="Group">
<path id="Vector" fill-rule="evenodd" clip-rule="evenodd" d="M16.6672 3.3332C16.6675 2.98561 16.5591 2.64663 16.3572 2.36368C16.1553 2.08073 15.8701 1.86798 15.5413 1.75521C15.2125 1.64243 14.8567 1.63527 14.5236 1.73472C14.1906 1.83418 13.8969 2.03527 13.6838 2.30986L2.01717 17.3099C1.78958 17.6024 1.66602 17.9625 1.66602 18.3332C1.66602 18.7039 1.78958 19.064 2.01717 19.3565L13.6838 34.3565C13.8969 34.6311 14.1906 34.8322 14.5236 34.9317C14.8567 35.0311 15.2125 35.024 15.5413 34.9112C15.8701 34.7984 16.1553 34.5857 16.3572 34.3027C16.5591 34.0198 16.6675 33.6808 16.6672 33.3332V26.6832C25.6322 26.8699 29.9388 28.5715 32.1022 30.4215C34.1588 32.1799 34.5355 34.2482 34.9272 36.4149L35.0288 36.9732C35.1036 37.3727 35.3218 37.7311 35.6424 37.981C35.963 38.2309 36.3638 38.355 36.7695 38.33C37.1752 38.305 37.5578 38.1327 37.8452 37.8453C38.1327 37.558 38.3053 37.1755 38.3305 36.7699C38.6155 32.1899 38.1872 25.5532 34.9522 20.0015C31.8122 14.6132 26.1572 10.4699 16.6672 10.0365V3.3332Z" fill="#FF9900"/>
</g>
</g>
</svg>
