<svg width="40" height="40" viewBox="0 0 40 40" fill="none" xmlns="http://www.w3.org/2000/svg">
<g id="bx:bxs-building">
<path id="Vector" d="M28.332 3.3335H11.6654C10.7813 3.3335 9.93346 3.68469 9.30834 4.30981C8.68322 4.93493 8.33203 5.78277 8.33203 6.66683V35.0002C8.33203 35.4422 8.50763 35.8661 8.82019 36.1787C9.13275 36.4912 9.55667 36.6668 9.9987 36.6668H29.9987C30.4407 36.6668 30.8647 36.4912 31.1772 36.1787C31.4898 35.8661 31.6654 35.4422 31.6654 35.0002V6.66683C31.6654 5.78277 31.3142 4.93493 30.6891 4.30981C30.0639 3.68469 29.2161 3.3335 28.332 3.3335ZM18.332 26.6668H13.332V23.3335H18.332V26.6668ZM18.332 20.0002H13.332V16.6668H18.332V20.0002ZM18.332 13.3335H13.332V10.0002H18.332V13.3335ZM26.6654 26.6668H21.6654V23.3335H26.6654V26.6668ZM26.6654 20.0002H21.6654V16.6668H26.6654V20.0002ZM26.6654 13.3335H21.6654V10.0002H26.6654V13.3335Z" fill="#FF9900"/>
</g>
</svg>
