<svg width="202" height="67" viewBox="0 0 202 67" fill="none" xmlns="http://www.w3.org/2000/svg">
<g id="Group 90">
<path id="Vector" fill-rule="evenodd" clip-rule="evenodd" d="M61.8499 16.23C54.8499 22.4 51.3899 28.6 52.0899 32.61C52.4199 34.54 53.8999 35.55 55.8899 36.14C51.4099 30.59 55.5699 23.08 63.2399 16.23H61.8499ZM81.8899 4C78.686 5.35772 75.57 6.91408 72.5599 8.66H73.6299C76.3016 7.02072 79.0588 5.52526 81.8899 4.18V4Z" fill="#4D2506"/>
<path id="Vector_2" fill-rule="evenodd" clip-rule="evenodd" d="M68.5099 42.71C66.1099 46.17 51.3699 61.07 30.6499 66.83C47.1799 63.9 66.5199 51.08 68.5099 42.71Z" fill="#4D2506"/>
<path id="Vector_3" fill-rule="evenodd" clip-rule="evenodd" d="M64.79 52.3001C69.84 50.0501 73.96 44.1701 72.58 39.8101C71.98 37.9401 70.64 36.2801 67.49 35.4301C66.06 35.0401 64.69 34.6901 63.49 34.2501C58.42 32.3501 57.88 28.4501 60.71 24.5801C56.42 27.9901 57.36 33.7901 62.63 35.7301C64.03 36.2401 65.54 36.5501 66.87 37.0001C75.06 39.7201 69.46 49.0601 64.79 52.3001Z" fill="#4D2506"/>
<path id="Vector_4" fill-rule="evenodd" clip-rule="evenodd" d="M199.85 25.5401L192.07 44.4301L184.07 25.5401H182.28L191.43 47.0001H192.62L201.55 25.5501L199.85 25.5401ZM154.74 36.1701C154.701 34.9477 154.907 33.7299 155.345 32.588C155.783 31.4461 156.444 30.4031 157.29 29.5201C158.115 28.675 159.1 28.0033 160.188 27.5447C161.276 27.0862 162.444 26.8499 163.625 26.8499C164.806 26.8499 165.974 27.0862 167.062 27.5447C168.15 28.0033 169.136 28.675 169.96 29.5201C170.816 30.3973 171.486 31.4386 171.93 32.5815C172.373 33.7243 172.581 34.945 172.54 36.1701C172.598 38.6371 171.686 41.0285 170 42.8301C169.19 43.7066 168.201 44.3988 167.101 44.8594C166 45.3201 164.813 45.5386 163.62 45.5001C162.433 45.526 161.255 45.3016 160.161 44.8415C159.067 44.3815 158.082 43.6961 157.27 42.8301C155.577 41.0333 154.667 38.6377 154.74 36.1701V36.1701ZM152.98 36.1701C152.928 37.6116 153.169 39.0487 153.688 40.3945C154.207 41.7403 154.994 42.9669 156 44.0001C156.993 45.0053 158.182 45.7963 159.492 46.3243C160.803 46.8524 162.208 47.1062 163.62 47.0701C165.032 47.1067 166.437 46.8501 167.745 46.3166C169.053 45.783 170.236 44.984 171.22 43.9701C172.227 42.9392 173.016 41.7168 173.542 40.3752C174.067 39.0337 174.318 37.6004 174.28 36.1601C174.326 34.7188 174.079 33.2832 173.553 31.9405C173.027 30.5979 172.233 29.3763 171.22 28.3501C170.234 27.3394 169.051 26.5433 167.743 26.0116C166.435 25.4798 165.031 25.224 163.62 25.2601C162.201 25.219 160.788 25.4774 159.476 26.0184C158.163 26.5594 156.978 27.3709 156 28.4001C155.005 29.4279 154.226 30.6454 153.711 31.9803C153.195 33.3151 152.954 34.74 153 36.1701H152.98ZM134.3 27.0601C138.16 27.0601 140.07 28.5801 140.07 31.6101C140.086 32.2679 139.942 32.9198 139.651 33.5101C139.36 34.1004 138.931 34.6116 138.4 35.0001C137.34 35.8639 136.008 36.3245 134.64 36.3001H131V27.1201C132.3 27.0901 133.42 27.0601 134.3 27.0601ZM131 37.8801H135.13L142.21 46.8001H144.27L136.83 37.5401C138.231 37.265 139.503 36.5378 140.45 35.4701C141.39 34.406 141.9 33.0298 141.88 31.6101C141.88 27.5201 139.38 25.4801 134.43 25.4801C134.28 25.4801 133.49 25.4801 132.09 25.4801C130.69 25.4801 129.79 25.4801 129.33 25.4801V46.8001H131V37.8801ZM116.84 46.8001V45.2301H106.45V36.8101H115.62V35.2301H106.45V27.1201H116.54V25.5401H104.78V46.8001H116.84ZM84.5201 27.1201V46.8001H86.1901V27.1201H94.0601V25.5401H76.6501V27.1201H84.5201ZM43.6401 46.8001V45.2301H33.2501V36.8101H42.4201V35.2301H33.2501V27.1201H43.3301V25.5401H31.5701V46.8001H43.6401ZM17.7901 25.5401H16.2101V43.8901L1.66007 25.5401H0.320068V46.8001H1.90007V28.5201L16.4501 46.8001H17.7901V25.5401Z" fill="#4D2506"/>
<path id="Vector_5" fill-rule="evenodd" clip-rule="evenodd" d="M69.6501 13.3002C69.4856 13.4965 69.2785 13.6526 69.0446 13.7566C68.8106 13.8606 68.5559 13.9097 68.3001 13.9002C68.0656 13.9085 67.8318 13.8704 67.6121 13.788C67.3925 13.7056 67.1913 13.5806 67.0201 13.4202C66.6945 13.0735 66.5133 12.6158 66.5133 12.1402C66.5133 11.6646 66.6945 11.2069 67.0201 10.8602C67.1742 10.6972 67.3604 10.5678 67.5669 10.48C67.7733 10.3922 67.9957 10.3481 68.2201 10.3502C68.7176 10.3214 69.2064 10.4904 69.5801 10.8202L69.8201 10.4202C69.352 10.0279 68.7491 9.83407 68.1401 9.88022C67.8533 9.87251 67.5683 9.92657 67.3043 10.0387C67.0404 10.1509 66.8036 10.3185 66.6101 10.5302C66.4062 10.7428 66.2464 10.9936 66.14 11.2682C66.0336 11.5428 65.9826 11.8358 65.9901 12.1302C65.9766 12.4301 66.0266 12.7294 66.1369 13.0086C66.2472 13.2878 66.4153 13.5405 66.6301 13.7502C66.8495 13.9588 67.1087 14.1212 67.3921 14.2277C67.6756 14.3342 67.9775 14.3827 68.2801 14.3702C68.5866 14.3809 68.8916 14.3237 69.1734 14.2027C69.4552 14.0817 69.7068 13.8998 69.9101 13.6702L69.6501 13.3002ZM62.3601 10.0002H61.8601V14.3102H62.3601V10.0002ZM64.7401 10.0002L62.6501 12.0902L64.8801 14.3102H65.5501L63.2501 12.0002L65.3801 10.0002H64.7401ZM58.6701 10.3802C58.8681 10.3639 59.0674 10.3906 59.2542 10.4584C59.4411 10.5262 59.611 10.6336 59.7525 10.7732C59.894 10.9128 60.0037 11.0813 60.074 11.2672C60.1443 11.453 60.1737 11.6519 60.1601 11.8502H57.0601C57.0638 11.6449 57.1088 11.4425 57.1925 11.2549C57.2761 11.0674 57.3966 10.8986 57.5469 10.7587C57.6971 10.6187 57.874 10.5104 58.0669 10.4402C58.2599 10.3701 58.465 10.3394 58.6701 10.3502V10.3802ZM60.2501 13.3802C60.0673 13.5623 59.848 13.7036 59.6067 13.7949C59.3655 13.8863 59.1076 13.9255 58.8501 13.9102C58.6223 13.927 58.3935 13.896 58.1784 13.8192C57.9633 13.7424 57.7666 13.6215 57.6009 13.4643C57.4352 13.3071 57.3042 13.117 57.2162 12.9062C57.1282 12.6954 57.0853 12.4686 57.0901 12.2402H60.6401C60.6515 12.1071 60.6515 11.9733 60.6401 11.8402C60.653 11.5797 60.6106 11.3194 60.5158 11.0764C60.4211 10.8334 60.276 10.6132 60.0901 10.4302C59.7087 10.0729 59.2026 9.87908 58.6801 9.89022C58.3815 9.87557 58.0834 9.92512 57.8056 10.0355C57.5279 10.1459 57.2771 10.3146 57.0701 10.5302C56.6805 10.9738 56.4764 11.5503 56.5001 12.1402C56.4871 12.4392 56.5365 12.7375 56.6449 13.0164C56.7534 13.2953 56.9186 13.5486 57.1301 13.7602C57.3507 13.9701 57.6115 14.1332 57.8968 14.2397C58.182 14.3462 58.4859 14.394 58.7901 14.3802C59.084 14.3965 59.378 14.3496 59.6523 14.2426C59.9266 14.1357 60.1747 13.9712 60.3801 13.7602L60.2501 13.3802ZM55.3201 14.2902V10.0002H52.5301L52.4601 11.3402C52.518 12.1546 52.2918 12.9639 51.8201 13.6302C51.7652 13.7027 51.6941 13.7613 51.6125 13.8012C51.5308 13.8412 51.441 13.8614 51.3501 13.8602V14.3502C51.5455 14.3671 51.7419 14.3304 51.9181 14.244C52.0943 14.1577 52.2436 14.025 52.3501 13.8602C52.7512 13.1172 52.9576 12.2846 52.9501 11.4402L53.0101 10.4902H54.8301V14.3102L55.3201 14.2902ZM50.3201 14.2902V10.0002H46.5701V14.3102H47.0701V10.4402H49.8201V14.2802L50.3201 14.2902ZM41.1001 14.2902V10.7302L42.8401 13.0502L44.5101 10.7302V14.2802H45.0101V10.0002H44.5601L42.8401 12.4102L41.0001 10.0002H40.5301V14.3102L41.1001 14.2902ZM37.1001 13.9102C36.8683 13.9194 36.6371 13.8797 36.4218 13.7935C36.2064 13.7073 36.0116 13.5767 35.8501 13.4102C35.689 13.2415 35.5635 13.0421 35.4811 12.824C35.3986 12.6058 35.3609 12.3733 35.3701 12.1402C35.3612 11.9057 35.3991 11.6718 35.4815 11.452C35.5639 11.2323 35.6892 11.0311 35.8501 10.8602C36.0141 10.6971 36.2093 10.5687 36.4241 10.4828C36.6389 10.3969 36.8688 10.3552 37.1001 10.3602C37.3316 10.3535 37.562 10.3944 37.777 10.4804C37.992 10.5664 38.1871 10.6957 38.3501 10.8602C38.6649 11.2122 38.839 11.6679 38.839 12.1402C38.839 12.6125 38.6649 13.0682 38.3501 13.4202C38.183 13.5865 37.9825 13.7153 37.7618 13.7981C37.5411 13.8809 37.3053 13.9157 37.0701 13.9002L37.1001 13.9102ZM35.4701 13.7502C35.785 14.0783 36.1916 14.3037 36.6366 14.3971C37.0817 14.4904 37.5446 14.4473 37.9648 14.2734C38.385 14.0995 38.7429 13.8029 38.9919 13.4223C39.2408 13.0417 39.3691 12.5949 39.3601 12.1402C39.3601 11.5408 39.122 10.966 38.6981 10.5422C38.2743 10.1183 37.6995 9.88022 37.1001 9.88022C36.5007 9.88022 35.9258 10.1183 35.502 10.5422C35.0782 10.966 34.8401 11.5408 34.8401 12.1402C34.8283 12.4334 34.8753 12.7261 34.9784 13.0008C35.0814 13.2756 35.2384 13.527 35.4401 13.7402L35.4701 13.7502ZM31.1801 10.0002H30.6801V14.3102H31.1801V10.0002ZM33.5601 10.0002L31.4701 12.0902L33.7001 14.3102H34.3801L32.0701 12.0002L34.2001 10.0002H33.5601ZM23.7001 7.72021C23.6896 7.89277 23.7162 8.06556 23.7781 8.22697C23.8399 8.38838 23.9357 8.53466 24.0589 8.65594C24.1821 8.77723 24.3298 8.87071 24.4922 8.9301C24.6545 8.98948 24.8277 9.01339 25.0001 9.00022C25.1682 9.01117 25.3368 8.98747 25.4954 8.93059C25.654 8.8737 25.7992 8.78484 25.922 8.66951C26.0448 8.55418 26.1426 8.41485 26.2094 8.26016C26.2762 8.10546 26.3104 7.9387 26.3101 7.77022H25.8601C25.8614 7.88307 25.8401 7.99504 25.7972 8.09945C25.7543 8.20385 25.6909 8.29855 25.6106 8.37789C25.5303 8.45722 25.4349 8.51957 25.33 8.56121C25.2251 8.60284 25.1129 8.62291 25.0001 8.62021C24.8851 8.62563 24.7703 8.60765 24.6625 8.56737C24.5547 8.52708 24.4562 8.46533 24.373 8.38585C24.2898 8.30638 24.2236 8.21083 24.1784 8.10501C24.1332 7.99918 24.1099 7.88529 24.1101 7.77022L23.7001 7.72021ZM26.4101 10.7202V14.3102H26.9101V10.0002H26.4101L23.5401 13.5902V10.0002H23.0001V14.3102H23.5001L26.4101 10.7202ZM19.5601 13.9302C19.3283 13.9394 19.0971 13.8997 18.8818 13.8135C18.6664 13.7273 18.4716 13.5967 18.3101 13.4302C18.1458 13.2634 18.0175 13.0645 17.9333 12.8461C17.849 12.6276 17.8104 12.3942 17.8201 12.1602C17.8075 11.9266 17.8436 11.6928 17.926 11.4738C18.0085 11.2549 18.1355 11.0554 18.2991 10.888C18.4627 10.7207 18.6592 10.5892 18.8763 10.5018C19.0933 10.4143 19.3262 10.373 19.5601 10.3802C19.7916 10.3735 20.022 10.4144 20.237 10.5004C20.452 10.5864 20.6471 10.7157 20.8101 10.8802C20.9709 11.0511 21.0962 11.2523 21.1786 11.472C21.261 11.6918 21.2989 11.9257 21.2901 12.1602C21.2989 12.3947 21.261 12.6287 21.1786 12.8484C21.0962 13.0682 20.9709 13.2693 20.8101 13.4402C20.6448 13.599 20.4484 13.7219 20.2332 13.8011C20.0181 13.8803 19.7889 13.914 19.5601 13.9002V13.9302ZM17.9301 13.7702C18.245 14.0983 18.6515 14.3237 19.0966 14.4171C19.5417 14.5104 20.0046 14.4673 20.4248 14.2934C20.845 14.1195 21.2029 13.8229 21.4519 13.4423C21.7008 13.0617 21.8291 12.6149 21.8201 12.1602C21.8201 11.5608 21.582 10.986 21.1581 10.5622C20.7343 10.1383 20.1595 9.90021 19.5601 9.90021C18.9607 9.90021 18.3858 10.1383 17.962 10.5622C17.5382 10.986 17.3001 11.5608 17.3001 12.1602C17.295 12.4522 17.348 12.7423 17.4562 13.0136C17.5643 13.2848 17.7254 13.5319 17.9301 13.7402V13.7702ZM16.0901 14.3102V10.0002H13.3001L13.2301 11.3402C13.2775 12.1535 13.0523 12.9594 12.5901 13.6302C12.5342 13.7016 12.4629 13.7593 12.3815 13.7991C12.3001 13.839 12.2107 13.8599 12.1201 13.8602V14.3502C12.306 14.3582 12.4907 14.3172 12.6557 14.2312C12.8207 14.1451 12.9602 14.0172 13.0601 13.8602C13.4723 13.1211 13.6827 12.2864 13.6701 11.4402L13.7301 10.4902H15.5501V14.3102H16.0901ZM10.5401 10.7202V14.3102H11.0001V10.0002H10.5101L7.63007 13.5902V10.0002H7.13007V14.3102H7.63007L10.5401 10.7202ZM0.320068 14.3102H0.930069L2.69007 12.0002L1.00007 10.0002H0.390068L2.13007 12.0002L0.320068 14.3102ZM3.50007 10.0002H3.00007V14.3102H3.50007V10.0002ZM5.50007 10.0002L3.80007 12.0002L5.59007 14.2402H6.20007L4.36007 12.0002L6.09007 10.0002H5.50007Z" fill="#4D2506"/>
<path id="Vector_6" fill-rule="evenodd" clip-rule="evenodd" d="M200.81 60.8798C200.813 60.9798 200.853 61.075 200.924 61.1457C200.995 61.2164 201.09 61.2573 201.19 61.2598C201.287 61.2547 201.379 61.2124 201.446 61.1417C201.513 61.0709 201.55 60.9772 201.55 60.8798C201.547 60.7861 201.508 60.697 201.441 60.6317C201.374 60.5663 201.284 60.5297 201.19 60.5298C201.094 60.527 201 60.5621 200.929 60.6275C200.858 60.6929 200.815 60.7834 200.81 60.8798V60.8798ZM201.44 54.5298H200.92V59.3898H201.44V54.5298ZM193.62 61.2398H194.22L196 58.9998L194.33 56.9198H193.72L195.43 58.9998L193.62 61.2398ZM196.79 56.9198H196.3V61.2398H196.79V56.9198ZM198.79 56.9198L197.1 58.9998L198.89 61.2398H199.5L197.66 58.9998L199.38 56.9198H198.79ZM190.94 60.8298C190.817 60.8484 190.692 60.8404 190.572 60.8063C190.452 60.7723 190.341 60.713 190.247 60.6325C190.152 60.5519 190.075 60.452 190.023 60.3394C189.97 60.2268 189.942 60.1042 189.94 59.9798C189.94 59.3998 190.48 59.0798 191.11 59.0798C191.511 59.0733 191.904 59.196 192.23 59.4298V60.1498C192.083 60.358 191.888 60.5282 191.662 60.6465C191.436 60.7647 191.185 60.8275 190.93 60.8298H190.94ZM189.94 57.6498C190.307 57.4327 190.724 57.3155 191.15 57.3098C191.79 57.3098 192.08 57.4998 192.15 57.9698C192.234 58.2962 192.267 58.6333 192.25 58.9698C191.908 58.7326 191.496 58.6164 191.08 58.6398C190.659 58.6238 190.244 58.7468 189.9 58.9898C189.748 59.1065 189.626 59.2586 189.546 59.4329C189.466 59.6071 189.43 59.7983 189.44 59.9898C189.431 60.1651 189.459 60.3403 189.523 60.5036C189.588 60.667 189.686 60.8147 189.812 60.9369C189.938 61.0591 190.089 61.1529 190.254 61.2121C190.419 61.2712 190.595 61.2943 190.77 61.2798C191.057 61.2921 191.343 61.2328 191.601 61.1071C191.86 60.9814 192.083 60.7933 192.25 60.5598V61.2198H192.75V58.5598C192.75 57.4098 192.3 56.8398 191.14 56.8398C190.656 56.8392 190.181 56.9743 189.77 57.2298L189.94 57.6498ZM186.71 57.4198V61.2398H187.21V57.4198H188.92V56.9198H185V57.4198H186.71ZM182.32 60.8598C182.088 60.8678 181.858 60.8274 181.642 60.7413C181.427 60.6552 181.232 60.5253 181.07 60.3598C180.755 60.0078 180.581 59.5521 180.581 59.0798C180.581 58.6075 180.755 58.1518 181.07 57.7998C181.235 57.638 181.43 57.5112 181.645 57.427C181.86 57.3428 182.089 57.3029 182.32 57.3098C182.549 57.3013 182.778 57.3405 182.991 57.4248C183.205 57.5092 183.398 57.6368 183.56 57.7998C183.876 58.1534 184.05 58.6108 184.05 59.0848C184.05 59.5588 183.876 60.0161 183.56 60.3698C183.394 60.5346 183.195 60.6631 182.976 60.7475C182.758 60.8318 182.524 60.87 182.29 60.8598H182.32ZM180.68 60.6898C181.124 61.1002 181.706 61.3282 182.31 61.3282C182.914 61.3282 183.496 61.1002 183.94 60.6898C184.35 60.2539 184.578 59.6781 184.578 59.0798C184.578 58.4814 184.35 57.9056 183.94 57.4698C183.494 57.0636 182.913 56.8385 182.31 56.8385C181.707 56.8385 181.126 57.0636 180.68 57.4698C180.275 57.9079 180.049 58.4828 180.049 59.0798C180.049 59.6767 180.275 60.2517 180.68 60.6898V60.6898ZM178.84 61.2398V56.9198H176V58.2698C176.056 59.084 175.83 59.8927 175.36 60.5598C175.305 60.6317 175.233 60.6898 175.152 60.7297C175.07 60.7696 174.981 60.7902 174.89 60.7898V61.2798C175.078 61.2865 175.265 61.2439 175.432 61.1562C175.598 61.0685 175.739 60.9387 175.84 60.7798C176.254 60.0417 176.461 59.2057 176.44 58.3598L176.5 57.4198H178.32V61.2398H178.84ZM173.29 57.6498V61.2398H173.79V56.9198H173.29L170.41 60.5198V56.9198H169.91V61.2398H170.41L173.29 57.6498ZM168.4 61.2398V56.9198H164.65V61.2398H165.15V57.3998H167.9V61.2398H168.4ZM157.67 54.6798C157.666 54.851 157.699 55.021 157.766 55.1786C157.833 55.3362 157.932 55.4779 158.058 55.5941C158.184 55.7104 158.333 55.7986 158.495 55.8531C158.658 55.9075 158.83 55.9268 159 55.9098C159.168 55.9207 159.337 55.897 159.495 55.8402C159.654 55.7833 159.799 55.6944 159.922 55.5791C160.045 55.4638 160.143 55.3244 160.209 55.1697C160.276 55.015 160.31 54.8483 160.31 54.6798H159.85C159.853 54.7917 159.833 54.903 159.791 55.0069C159.749 55.1107 159.686 55.2049 159.607 55.2836C159.527 55.3623 159.432 55.4238 159.328 55.4645C159.223 55.5051 159.112 55.5239 159 55.5198C158.886 55.5266 158.771 55.5099 158.663 55.4708C158.555 55.4316 158.457 55.3708 158.373 55.2922C158.29 55.2135 158.224 55.1185 158.178 55.0132C158.133 54.9079 158.11 54.7944 158.11 54.6798H157.67ZM160.38 57.6798V61.2698H160.88V56.9198H160.38L157.5 60.5198V56.9198H157V61.2398H157.49L160.38 57.6798ZM154.99 57.6798V61.2698H155.49V56.9198H155L152.13 60.5198V56.9198H151.63V61.2398H152.13L154.99 57.6798ZM150.09 61.2698V56.9198H149.59V60.7698H147.72V56.9198H147.22V60.7698H145.35V56.9198H144.85V61.2398L150.09 61.2698ZM143.51 60.2698C143.345 60.463 143.14 60.6171 142.908 60.7209C142.676 60.8247 142.424 60.8756 142.17 60.8698C141.694 60.8817 141.232 60.7097 140.88 60.3898C140.711 60.2194 140.578 60.0161 140.491 59.7925C140.403 59.569 140.362 59.3298 140.37 59.0898C140.364 58.8569 140.406 58.6253 140.492 58.4088C140.577 58.1923 140.706 57.9953 140.87 57.8298C141.024 57.6668 141.21 57.5373 141.417 57.4496C141.623 57.3618 141.846 57.3176 142.07 57.3198C142.57 57.2927 143.062 57.4612 143.44 57.7898L143.67 57.3898C143.202 56.9974 142.599 56.8036 141.99 56.8498C141.703 56.8421 141.418 56.8961 141.154 57.0083C140.89 57.1204 140.654 57.2881 140.46 57.4998C140.258 57.7113 140.1 57.9607 139.996 58.2337C139.891 58.5066 139.842 58.7976 139.85 59.0898C139.836 59.3903 139.885 59.6904 139.994 59.971C140.102 60.2516 140.268 60.5066 140.48 60.7198C140.7 60.9284 140.959 61.0908 141.242 61.1973C141.526 61.3038 141.828 61.3522 142.13 61.3398C142.437 61.3512 142.742 61.2943 143.024 61.1732C143.306 61.0522 143.557 60.87 143.76 60.6398L143.51 60.2698ZM138.64 56.9298H138.14V61.2498H138.64V56.9298ZM135.36 58.8498C136.2 58.8498 136.62 59.1831 136.62 59.8498C136.62 60.4898 136.27 60.8498 135.35 60.8498H134.7V58.8398L135.36 58.8498ZM135.36 61.2498C136.61 61.2498 137.13 60.6498 137.13 59.7998C137.13 58.9498 136.56 58.3798 135.42 58.3798H134.67V56.9198H134.17V61.2398L135.36 61.2498ZM131 57.3598C131.8 57.3598 132.2 57.6098 132.2 58.0898C132.2 58.5698 131.82 58.8398 131.2 58.8398H130.06V57.3798L131 57.3598ZM131.09 59.2498C131.94 59.2498 132.37 59.4998 132.37 59.9998C132.37 60.4998 131.91 60.7998 131.02 60.7998H130.02V59.2498H131.09ZM129.55 61.2498H130.21H130.96C132.25 61.2498 132.89 60.8498 132.89 60.0298C132.89 59.4398 132.55 59.0998 131.89 59.0298C132.132 58.9981 132.354 58.8788 132.515 58.6946C132.675 58.5104 132.762 58.2739 132.76 58.0298C132.76 57.2598 132.17 56.9198 130.97 56.9198H130.2C129.9 56.9198 129.69 56.9198 129.58 56.9198L129.55 61.2498Z" fill="#4D2506"/>
<path id="Vector_7" fill-rule="evenodd" clip-rule="evenodd" d="M76.1399 2.73C76.1399 2.73 85.1999 0.25 89.4599 0C87.5717 2.28247 85.354 4.27096 82.8799 5.9C83.3299 5.02 84.6899 3.51 84.1499 2.96C83.4399 2.27 80.4599 2.22 76.1399 2.73Z" fill="#4D2506"/>
</g>
</svg>
