<svg width="40" height="40" viewBox="0 0 40 40" fill="none" xmlns="http://www.w3.org/2000/svg">
<g id="vs:floors" clip-path="url(#clip0_334_1525)">
<path id="Vector" d="M0.859375 11.224C0.546875 11.0678 0.325521 10.8985 0.195312 10.7162C0.0651042 10.5339 0 10.2865 0 9.97404C0 9.66154 0.0651042 9.41414 0.195312 9.23185C0.325521 9.04956 0.546875 8.88029 0.859375 8.72404L17.4479 0.442786C18.125 0.112925 18.9757 -0.0346447 20 7.75056e-05C21.0243 -0.0346447 21.875 0.112925 22.5521 0.442786L39.1406 8.72404C39.4531 8.88029 39.6745 9.04956 39.8047 9.23185C39.9349 9.41414 40 9.66154 40 9.97404C40 10.2865 39.9349 10.5339 39.8047 10.7162C39.6745 10.8985 39.4531 11.0678 39.1406 11.224L22.5521 19.5053C21.875 19.8351 21.0243 19.9827 20 19.948C18.9757 19.9827 18.125 19.8351 17.4479 19.5053L0.859375 11.224ZM0.859375 31.2761C0.546875 31.1199 0.325521 30.9506 0.195312 30.7683C0.0651042 30.586 0 30.3386 0 30.0261C0 29.7136 0.0651042 29.4662 0.195312 29.2839C0.325521 29.1016 0.546875 28.9324 0.859375 28.7761L5.02604 26.6928L17.4479 32.8907C18.1424 33.2206 18.9931 33.3595 20 33.3074C21.0069 33.3595 21.8576 33.2206 22.5521 32.8907L34.974 26.6928L39.1406 28.7761C39.4531 28.9324 39.6745 29.1016 39.8047 29.2839C39.9349 29.4662 40 29.7136 40 30.0261C40 30.3386 39.9349 30.586 39.8047 30.7683C39.6745 30.9506 39.4531 31.1199 39.1406 31.2761L22.5521 39.5574C21.8576 39.8872 21.0069 40.0261 20 39.974C18.9931 40.0261 18.1424 39.8872 17.4479 39.5574L0.859375 31.2761ZM0.859375 21.2761C0.546875 21.1199 0.325521 20.9506 0.195312 20.7683C0.0651042 20.586 0 20.3386 0 20.0261C0 19.7136 0.0651042 19.4662 0.195312 19.2839C0.325521 19.1016 0.546875 18.9324 0.859375 18.7761L5.02604 16.6928L17.4479 22.8907C18.1424 23.2206 18.9931 23.3595 20 23.3074C21.0069 23.3595 21.8576 23.2206 22.5521 22.8907L34.974 16.6928L39.1406 18.7761C39.4531 18.9324 39.6745 19.1016 39.8047 19.2839C39.9349 19.4662 40 19.7136 40 20.0261C40 20.3386 39.9349 20.586 39.8047 20.7683C39.6745 20.9506 39.4531 21.1199 39.1406 21.2761L22.5521 29.5574C21.8576 29.8872 21.0069 30.0261 20 29.974C18.9931 30.0261 18.1424 29.8872 17.4479 29.5574L0.859375 21.2761Z" fill="#FF9900"/>
</g>
<defs>
<clipPath id="clip0_334_1525">
<rect width="40" height="40" fill="white"/>
</clipPath>
</defs>
</svg>
